<?xml version="1.0" ?><svg style="enable-background:new 0 0 512 512;" version="1.1" viewBox="0 0 512 512" xml:space="preserve" xmlns="http://www.w3.org/2000/svg" xmlns:xlink="http://www.w3.org/1999/xlink"><style type="text/css">
	.st0{fill:#333333;}
</style><g id="Layer_1"/><g id="Layer_2"><g><path class="st0" d="M263.24,27.5c-61.03,0-118.42,23.77-161.57,66.93C58.51,137.58,34.74,194.97,34.74,256    s23.77,118.42,66.93,161.57c43.16,43.16,100.54,66.93,161.57,66.93s118.42-23.77,161.57-66.93    c43.16-43.16,66.93-100.54,66.93-161.57s-23.77-118.42-66.93-161.57C381.65,51.27,324.27,27.5,263.24,27.5z M263.24,452.5    c-108.35,0-196.5-88.15-196.5-196.5s88.15-196.5,196.5-196.5s196.5,88.15,196.5,196.5S371.59,452.5,263.24,452.5z"/><path class="st0" d="M396.71,182.52c0-16.03-6.24-31.09-17.57-42.43c-11.33-11.33-26.4-17.57-42.43-17.57s-31.09,6.24-42.43,17.57    l-31.05,31.05l-31.05-31.05c-23.39-23.39-61.46-23.39-84.85,0c-23.39,23.39-23.39,61.46,0,84.85L178.38,256l-31.05,31.05    c-23.39,23.39-23.39,61.46,0,84.85c23.4,23.39,61.46,23.39,84.85,0l31.05-31.05l31.05,31.05c11.33,11.33,26.4,17.57,42.43,17.57    s31.09-6.24,42.43-17.57c11.33-11.33,17.57-26.4,17.57-42.43c0-16.03-6.24-31.09-17.57-42.43L348.09,256l31.05-31.05    C390.47,213.62,396.71,198.55,396.71,182.52z M356.51,202.32l-42.36,42.36c-6.25,6.25-6.25,16.38,0,22.63l42.36,42.36    c5.29,5.29,8.2,12.32,8.2,19.8c0,7.48-2.91,14.51-8.2,19.8c-5.29,5.29-12.32,8.2-19.8,8.2s-14.51-2.91-19.8-8.2l-42.36-42.36    c-3.12-3.12-7.22-4.69-11.31-4.69s-8.19,1.56-11.31,4.69l-42.36,42.36c-10.92,10.92-28.68,10.92-39.6,0    c-10.92-10.92-10.92-28.68,0-39.6l42.36-42.36c6.25-6.25,6.25-16.38,0-22.63l-42.36-42.36c-10.92-10.92-10.92-28.68,0-39.6    c10.92-10.92,28.68-10.92,39.6,0l42.36,42.36c6.25,6.25,16.38,6.25,22.63,0l42.36-42.36c5.29-5.29,12.32-8.2,19.8-8.2    s14.51,2.91,19.8,8.2s8.2,12.32,8.2,19.8C364.71,190,361.8,197.03,356.51,202.32z"/></g></g></svg>