<svg xmlns="http://www.w3.org/2000/svg" viewBox="0 0 512 512" width="512" height="512">
	<style>
		tspan { white-space:pre }
		.shp0 { fill: #333333 } 
	</style>
	<g id="Layer_1">
	</g>
	<g id="Layer_2">
		<g id="Layer">
			<path id="Layer" class="shp0" d="M462.74,180.61c0.3,-0.3 0.57,-0.61 0.84,-0.93c0.06,-0.07 0.13,-0.14 0.19,-0.22c0.25,-0.3 0.47,-0.61 0.69,-0.93c0.08,-0.11 0.16,-0.21 0.24,-0.33c0.21,-0.31 0.39,-0.63 0.58,-0.95c0.07,-0.13 0.16,-0.25 0.23,-0.39c0.17,-0.31 0.31,-0.63 0.46,-0.95c0.07,-0.16 0.15,-0.31 0.22,-0.47c0.13,-0.31 0.23,-0.62 0.34,-0.93c0.06,-0.18 0.13,-0.36 0.19,-0.55c0.1,-0.32 0.17,-0.64 0.25,-0.96c0.04,-0.19 0.1,-0.37 0.14,-0.56c0.08,-0.38 0.13,-0.76 0.17,-1.14c0.02,-0.14 0.05,-0.27 0.06,-0.41c0.11,-1.06 0.11,-2.13 0,-3.19c-0.02,-0.19 -0.06,-0.37 -0.08,-0.56c-0.04,-0.33 -0.09,-0.66 -0.15,-0.98c-0.05,-0.25 -0.12,-0.49 -0.18,-0.73c-0.06,-0.26 -0.12,-0.52 -0.2,-0.78c-0.08,-0.25 -0.17,-0.5 -0.26,-0.75c-0.09,-0.24 -0.17,-0.49 -0.27,-0.73c-0.1,-0.24 -0.22,-0.48 -0.33,-0.71c-0.11,-0.23 -0.21,-0.47 -0.34,-0.7c-0.13,-0.24 -0.28,-0.47 -0.42,-0.71c-0.13,-0.21 -0.24,-0.42 -0.38,-0.63c-0.19,-0.29 -0.4,-0.56 -0.61,-0.83c-0.11,-0.14 -0.2,-0.29 -0.32,-0.42c-0.35,-0.42 -0.72,-0.83 -1.1,-1.22l-79.63,-79.63c-6.25,-6.25 -16.38,-6.25 -22.63,0c-6.25,6.25 -6.25,16.38 0,22.63l52.34,52.34l-354.23,0c-8.84,0 -16,7.16 -16,16c0,8.84 7.16,16 16,16l354.26,0l-52.35,52.35c-3.12,3.12 -4.69,7.22 -4.69,11.31c0,4.09 1.56,8.19 4.69,11.31c6.25,6.25 16.38,6.25 22.63,0z" />
			<path id="Layer" class="shp0" d="M467.43,344.7c0,-8.84 -7.16,-16 -16,-16l-354.23,0l52.34,-52.34c6.25,-6.25 6.25,-16.38 0,-22.63c-6.25,-6.25 -16.38,-6.25 -22.63,0l-79.63,79.63c-0.39,0.39 -0.76,0.79 -1.1,1.22c-0.11,0.14 -0.21,0.28 -0.31,0.42c-0.21,0.27 -0.42,0.55 -0.61,0.83c-0.14,0.2 -0.25,0.41 -0.38,0.62c-0.14,0.24 -0.29,0.47 -0.42,0.72c-0.12,0.23 -0.22,0.46 -0.33,0.69c-0.11,0.24 -0.23,0.48 -0.34,0.72c-0.1,0.24 -0.18,0.48 -0.26,0.72c-0.09,0.25 -0.19,0.5 -0.26,0.76c-0.08,0.25 -0.13,0.51 -0.2,0.76c-0.06,0.25 -0.13,0.5 -0.18,0.75c-0.06,0.32 -0.1,0.63 -0.15,0.95c-0.03,0.2 -0.07,0.39 -0.09,0.59c-0.05,0.53 -0.08,1.06 -0.08,1.59c0,0.53 0.03,1.07 0.08,1.6c0.01,0.15 0.05,0.3 0.06,0.44c0.05,0.37 0.1,0.74 0.17,1.11c0.04,0.2 0.1,0.39 0.14,0.58c0.08,0.31 0.15,0.63 0.24,0.94c0.06,0.19 0.13,0.37 0.2,0.56c0.11,0.31 0.21,0.62 0.34,0.92c0.07,0.16 0.15,0.32 0.22,0.48c0.14,0.32 0.29,0.63 0.45,0.94c0.07,0.13 0.16,0.26 0.23,0.39c0.18,0.32 0.37,0.64 0.58,0.95c0.08,0.11 0.16,0.22 0.24,0.33c0.22,0.31 0.44,0.63 0.69,0.92c0.06,0.08 0.13,0.14 0.19,0.22c0.27,0.32 0.54,0.63 0.84,0.93l79.66,79.66c6.25,6.25 16.38,6.25 22.63,0c6.25,-6.25 6.25,-16.38 0,-22.63l-52.35,-52.35l354.25,0c8.84,0.01 16,-7.15 16,-15.99z" />
		</g>
	</g>
</svg>