<?xml version="1.0" ?><svg style="enable-background:new 0 0 512 512;" version="1.1" viewBox="0 0 512 512" xml:space="preserve" xmlns="http://www.w3.org/2000/svg" xmlns:xlink="http://www.w3.org/1999/xlink"><style type="text/css">
	.st0{fill:#333333;}
</style><g id="Layer_1"/><g id="Layer_2"><g><path class="st0" d="M179.61,48.26c-0.3-0.3-0.61-0.57-0.93-0.84c-0.07-0.06-0.14-0.13-0.22-0.19c-0.3-0.25-0.61-0.47-0.93-0.69    c-0.11-0.08-0.21-0.16-0.33-0.24c-0.31-0.21-0.63-0.39-0.95-0.58c-0.13-0.07-0.25-0.16-0.39-0.23c-0.31-0.17-0.63-0.31-0.95-0.46    c-0.16-0.07-0.31-0.15-0.47-0.22c-0.31-0.13-0.62-0.23-0.93-0.34c-0.18-0.06-0.36-0.13-0.55-0.19c-0.32-0.1-0.64-0.17-0.96-0.25    c-0.19-0.04-0.37-0.1-0.56-0.14c-0.38-0.08-0.76-0.13-1.14-0.17c-0.14-0.02-0.27-0.05-0.41-0.06c-1.06-0.11-2.13-0.11-3.19,0    c-0.19,0.02-0.37,0.06-0.56,0.08c-0.33,0.04-0.66,0.09-0.98,0.15c-0.25,0.05-0.49,0.12-0.73,0.18c-0.26,0.06-0.52,0.12-0.78,0.2    c-0.25,0.08-0.5,0.17-0.75,0.26c-0.24,0.09-0.49,0.17-0.73,0.27c-0.24,0.1-0.48,0.22-0.71,0.33c-0.23,0.11-0.47,0.21-0.7,0.34    c-0.24,0.13-0.47,0.28-0.71,0.42c-0.21,0.13-0.42,0.24-0.63,0.38c-0.29,0.19-0.56,0.4-0.83,0.61c-0.14,0.11-0.29,0.2-0.42,0.32    c-0.42,0.35-0.83,0.72-1.22,1.1l-79.63,79.63c-6.25,6.25-6.25,16.38,0,22.63c6.25,6.25,16.38,6.25,22.63,0l52.34-52.34v354.23    c0,8.84,7.16,16,16,16s16-7.16,16-16V98.19l52.35,52.35c3.12,3.12,7.22,4.69,11.31,4.69s8.19-1.56,11.31-4.69    c6.25-6.25,6.25-16.38,0-22.63L179.61,48.26z"/><path class="st0" d="M343.7,43.57c-8.84,0-16,7.16-16,16V413.8l-52.34-52.34c-6.25-6.25-16.38-6.25-22.63,0    c-6.25,6.25-6.25,16.38,0,22.63l79.63,79.63c0.39,0.39,0.79,0.76,1.22,1.1c0.14,0.11,0.28,0.21,0.42,0.31    c0.27,0.21,0.55,0.42,0.83,0.61c0.2,0.14,0.41,0.25,0.62,0.38c0.24,0.14,0.47,0.29,0.72,0.42c0.23,0.12,0.46,0.22,0.69,0.33    c0.24,0.11,0.48,0.23,0.72,0.34c0.24,0.1,0.48,0.18,0.72,0.26c0.25,0.09,0.5,0.19,0.76,0.26c0.25,0.08,0.51,0.13,0.76,0.2    c0.25,0.06,0.5,0.13,0.75,0.18c0.32,0.06,0.63,0.1,0.95,0.15c0.2,0.03,0.39,0.07,0.59,0.09c0.53,0.05,1.06,0.08,1.59,0.08    c0.53,0,1.07-0.03,1.6-0.08c0.15-0.01,0.3-0.05,0.44-0.06c0.37-0.05,0.74-0.1,1.11-0.17c0.2-0.04,0.39-0.1,0.58-0.14    c0.31-0.08,0.63-0.15,0.94-0.24c0.19-0.06,0.37-0.13,0.56-0.2c0.31-0.11,0.62-0.21,0.92-0.34c0.16-0.07,0.32-0.15,0.48-0.22    c0.32-0.14,0.63-0.29,0.94-0.45c0.13-0.07,0.26-0.16,0.39-0.23c0.32-0.18,0.64-0.37,0.95-0.58c0.11-0.08,0.22-0.16,0.33-0.24    c0.31-0.22,0.63-0.44,0.92-0.69c0.08-0.06,0.14-0.13,0.22-0.19c0.32-0.27,0.63-0.54,0.93-0.84l79.66-79.66    c6.25-6.25,6.25-16.38,0-22.63c-6.25-6.25-16.38-6.25-22.63,0l-52.35,52.35V59.57C359.7,50.73,352.54,43.57,343.7,43.57z"/></g></g></svg>