<?xml version="1.0" ?><svg style="enable-background:new 0 0 512 512;" version="1.1" viewBox="0 0 512 512" xml:space="preserve" xmlns="http://www.w3.org/2000/svg" xmlns:xlink="http://www.w3.org/1999/xlink"><style type="text/css">
	.st0{fill:#333333;}
</style><g id="Layer_1"/><g id="Layer_2"><g><path class="st0" d="M256,27.5c-61.03,0-118.42,23.77-161.57,66.93C51.27,137.58,27.5,194.97,27.5,256s23.77,118.42,66.93,161.57    C137.58,460.73,194.97,484.5,256,484.5s118.42-23.77,161.57-66.93C460.73,374.42,484.5,317.03,484.5,256    s-23.77-118.42-66.93-161.57C374.42,51.27,317.03,27.5,256,27.5z M256,452.5c-108.35,0-196.5-88.15-196.5-196.5    S147.65,59.5,256,59.5S452.5,147.65,452.5,256S364.35,452.5,256,452.5z"/><path class="st0" d="M324.16,131.16c-6.25-6.25-16.38-6.25-22.63,0L187.84,244.85c-3,3-4.69,7.08-4.69,11.33s1.7,8.32,4.7,11.32    l113.69,113.36c3.12,3.11,7.21,4.67,11.3,4.67c4.1,0,8.21-1.57,11.33-4.7c6.24-6.26,6.22-16.39-0.03-22.63L221.8,256.15    l102.36-102.36C330.41,147.54,330.41,137.41,324.16,131.16z"/></g></g></svg>