<?xml version="1.0" ?><svg style="enable-background:new 0 0 512 512;" version="1.1" viewBox="0 0 512 512" xml:space="preserve" xmlns="http://www.w3.org/2000/svg" xmlns:xlink="http://www.w3.org/1999/xlink"><style type="text/css">
	.st0{fill:#333333;}
</style><g id="Layer_1"/><g id="Layer_2"><g><path class="st0" d="M256,27.5c-61.03,0-118.42,23.77-161.57,66.93C51.27,137.58,27.5,194.97,27.5,256s23.77,118.42,66.93,161.57    C137.58,460.73,194.97,484.5,256,484.5s118.42-23.77,161.57-66.93C460.73,374.42,484.5,317.03,484.5,256    s-23.77-118.42-66.93-161.57C374.42,51.27,317.03,27.5,256,27.5z M256,452.5c-108.35,0-196.5-88.15-196.5-196.5    S147.65,59.5,256,59.5S452.5,147.65,452.5,256S364.35,452.5,256,452.5z"/><path class="st0" d="M210.47,131.16c-6.25-6.25-16.38-6.25-22.63,0c-6.25,6.25-6.25,16.38,0,22.63L290.2,256.15L187.86,358.2    c-6.26,6.24-6.27,16.37-0.03,22.63c3.13,3.13,7.23,4.7,11.33,4.7c4.09,0,8.17-1.56,11.3-4.67L324.14,267.5    c3.01-3,4.7-7.07,4.7-11.32s-1.68-8.32-4.69-11.33L210.47,131.16z"/></g></g></svg>