<?xml version="1.0" ?><svg style="enable-background:new 0 0 512 512;" version="1.1" viewBox="0 0 512 512" xml:space="preserve" xmlns="http://www.w3.org/2000/svg" xmlns:xlink="http://www.w3.org/1999/xlink"><style type="text/css">
	.st0{fill:#333333;}
</style><g id="Layer_1"/><g id="Layer_2"><g><path class="st0" d="M218.47,396.19c8.84,0,16-7.16,16-16V131.81c0-8.84-7.16-16-16-16H106.64c-8.84,0-16,7.16-16,16v248.38    c0,8.84,7.16,16,16,16H218.47z M122.64,147.81h79.83v216.38h-79.83V147.81z"/><path class="st0" d="M405.36,396.19c8.84,0,16-7.16,16-16V131.81c0-8.84-7.16-16-16-16H293.53c-8.84,0-16,7.16-16,16v248.38    c0,8.84,7.16,16,16,16H405.36z M309.53,147.81h79.83v216.38h-79.83V147.81z"/></g></g></svg>