<?xml version="1.0" ?><svg style="enable-background:new 0 0 512 512;" version="1.1" viewBox="0 0 512 512" xml:space="preserve" xmlns="http://www.w3.org/2000/svg" xmlns:xlink="http://www.w3.org/1999/xlink"><style type="text/css">
	.st0{fill:#333333;}
</style><g id="Layer_1"/><g id="Layer_2"><g><path class="st0" d="M434.74,220.64l-164.08-94.73c-12.78-7.38-28.04-7.38-40.82-0.01c-12.79,7.38-20.42,20.6-20.42,35.36v189.46    c0,14.76,7.63,27.98,20.42,35.36c6.39,3.69,13.4,5.53,20.41,5.53c7.01,0,14.02-1.85,20.41-5.54l164.08-94.73c0,0,0,0,0,0    c12.78-7.38,20.41-20.6,20.41-35.35S447.53,228.03,434.74,220.64z M418.74,263.65L418.74,263.65l-164.08,94.73    c-3.98,2.3-7.5,0.77-8.82,0c-1.33-0.77-4.42-3.05-4.42-7.65V161.27c0-4.6,3.09-6.88,4.42-7.65c0.81-0.46,2.42-1.21,4.45-1.21    c1.32,0,2.81,0.31,4.37,1.22l164.08,94.73c3.99,2.3,4.42,6.11,4.42,7.65S422.72,261.34,418.74,263.65z"/><path class="st0" d="M134.53,391.59c19.99,0,36.26-16.27,36.26-36.26V156.67c0-19.99-16.27-36.26-36.26-36.26H93.11    c-19.99,0-36.26,16.27-36.26,36.26v198.67c0,19.99,16.27,36.26,36.26,36.26H134.53z M88.85,355.33V156.67    c0-2.35,1.91-4.26,4.26-4.26h41.42c2.35,0,4.26,1.91,4.26,4.26v198.67c0,2.35-1.91,4.26-4.26,4.26H93.11    C90.76,359.59,88.85,357.68,88.85,355.33z"/></g></g></svg>