<?xml version="1.0" ?><svg style="enable-background:new 0 0 512 512;" version="1.1" viewBox="0 0 512 512" xml:space="preserve" xmlns="http://www.w3.org/2000/svg" xmlns:xlink="http://www.w3.org/1999/xlink"><style type="text/css">
	.st0{fill:#333333;}
</style><g id="Layer_1"/><g id="Layer_2"><g><path class="st0" d="M433.64,257.72c0-63.46-34.22-122.53-89.31-154.15c-7.66-4.4-17.44-1.76-21.84,5.91    c-4.4,7.66-1.75,17.44,5.91,21.84c45.18,25.94,73.24,74.37,73.24,126.4c0,76.89-59.9,140.05-135.48,145.28l26.54-26.54    c6.25-6.25,6.25-16.38,0-22.63c-6.25-6.25-16.38-6.25-22.63,0l-50.77,50.77c-3,3-4.69,7.07-4.69,11.31s1.69,8.31,4.69,11.31    L270.07,478c3.12,3.12,7.22,4.69,11.31,4.69s8.19-1.56,11.31-4.69c6.25-6.25,6.25-16.38,0-22.63l-20.74-20.74    C362.46,426.54,433.64,350.29,433.64,257.72z"/><path class="st0" d="M219.3,158.16c3.12,3.12,7.22,4.69,11.31,4.69c4.09,0,8.19-1.56,11.31-4.69l50.77-50.77    c3-3,4.69-7.07,4.69-11.31s-1.69-8.31-4.69-11.31L241.93,34c-6.25-6.25-16.38-6.25-22.63,0c-6.25,6.25-6.25,16.38,0,22.63    l23.92,23.92c-92.01,6.57-164.86,83.52-164.86,177.18c0,63.5,34.25,122.59,89.4,154.21c2.51,1.44,5.25,2.12,7.94,2.12    c5.55,0,10.94-2.89,13.89-8.04c4.4-7.67,1.74-17.44-5.92-21.84c-45.22-25.93-73.31-74.38-73.31-126.45    c0-75.61,57.92-137.95,131.73-144.97l-22.79,22.79C213.05,141.78,213.05,151.91,219.3,158.16z"/></g></g></svg>