<?xml version="1.0" ?><svg style="enable-background:new 0 0 512 512;" version="1.1" viewBox="0 0 512 512" xml:space="preserve" xmlns="http://www.w3.org/2000/svg" xmlns:xlink="http://www.w3.org/1999/xlink"><style type="text/css">
	.st0{fill:#333333;}
</style><g id="Layer_1"/><g id="Layer_2"><g><path class="st0" d="M427.87,287.73c0-56.28-27.62-109.08-73.89-141.23c-7.25-5.04-17.23-3.25-22.27,4.01    c-5.04,7.26-3.25,17.23,4.01,22.27c37.66,26.17,60.15,69.14,60.15,114.95c0,77.12-62.75,139.87-139.87,139.87    s-139.87-62.75-139.87-139.87c0-45.81,22.49-88.78,60.15-114.95c7.26-5.04,9.05-15.01,4.01-22.27    c-5.04-7.26-15.02-9.05-22.27-4.01c-46.27,32.15-73.89,84.95-73.89,141.23c0,94.77,77.1,171.87,171.87,171.87    S427.87,382.5,427.87,287.73z"/><path class="st0" d="M272,287.73V68.4c0-8.84-7.16-16-16-16s-16,7.16-16,16v219.33c0,8.84,7.16,16,16,16S272,296.57,272,287.73z"/></g></g></svg>