<?xml version="1.0" ?><svg style="enable-background:new 0 0 512 512;" version="1.1" viewBox="0 0 512 512" xml:space="preserve" xmlns="http://www.w3.org/2000/svg" xmlns:xlink="http://www.w3.org/1999/xlink"><style type="text/css">
	.st0{fill:#333333;}
</style><g id="Layer_1"/><g id="Layer_2"><g><path class="st0" d="M479.98,463.07V300.56c0-8.84-7.16-16-16-16H301.46c-8.84,0-16,7.16-16,16v162.51c0,8.84,7.16,16,16,16    h162.51C472.81,479.07,479.98,471.91,479.98,463.07z M447.98,447.07H317.46V316.56h130.51V447.07z"/><path class="st0" d="M379.11,234.63c2.86-4.95,2.86-11.05,0-16L273.88,36.36c-2.86-4.95-8.14-8-13.86-8s-11,3.05-13.86,8    L140.93,218.63c-2.86,4.95-2.86,11.05,0,16c2.86,4.95,8.14,8,13.86,8h210.47C370.97,242.63,376.26,239.58,379.11,234.63z     M182.5,210.63l77.52-134.28l77.52,134.28H182.5z"/><path class="st0" d="M235.68,381.82c0-56.15-45.68-101.83-101.83-101.83S32.02,325.67,32.02,381.82S77.7,483.64,133.85,483.64    S235.68,437.96,235.68,381.82z M64.02,381.82c0-38.5,31.32-69.83,69.83-69.83s69.83,31.32,69.83,69.83s-31.32,69.83-69.83,69.83    S64.02,420.32,64.02,381.82z"/></g></g></svg>