<?xml version="1.0" ?><svg style="enable-background:new 0 0 512 512;" version="1.1" viewBox="0 0 512 512" xml:space="preserve" xmlns="http://www.w3.org/2000/svg" xmlns:xlink="http://www.w3.org/1999/xlink"><style type="text/css">
	.st0{fill:#333333;}
</style><g id="Layer_1"/><g id="Layer_2"><g><path class="st0" d="M362.42,89.71H149.58c-67.32,0-122.08,54.76-122.08,122.08v146.5c0,35.29,28.71,63.99,63.99,63.99    c17.29,0,34.08-7.14,46.08-19.59l68.52-71.1c12.48-12.95,29.95-20.37,47.93-20.37h3.96c17.98,0,35.45,7.43,47.93,20.37l68.52,71.1    c12,12.45,28.79,19.59,46.08,19.59c35.29,0,63.99-28.71,63.99-63.99v-146.5C484.5,144.48,429.74,89.71,362.42,89.71z     M452.5,358.29c0,17.64-14.35,31.99-31.99,31.99c-8.64,0-17.04-3.57-23.04-9.79l-68.52-71.1c-18.48-19.17-44.34-30.17-70.97-30.17    h-3.96c-26.63,0-52.49,11-70.97,30.17l-68.52,71.1c-6,6.22-14.39,9.79-23.04,9.79c-17.64,0-31.99-14.35-31.99-31.99v-146.5    c0-49.67,40.41-90.08,90.08-90.08h212.84c49.67,0,90.08,40.41,90.08,90.08V358.29z"/><path class="st0" d="M188.51,198.93h-17.87v-17.87c0-8.84-7.16-16-16-16s-16,7.16-16,16v17.87h-17.87c-8.84,0-16,7.16-16,16    s7.16,16,16,16h17.87v17.87c0,8.84,7.16,16,16,16s16-7.16,16-16v-17.87h17.87c8.84,0,16-7.16,16-16S197.35,198.93,188.51,198.93z"/><path class="st0" d="M367.43,172.31c-0.1-0.51-0.23-1.02-0.38-1.52s-0.33-0.99-0.53-1.47c-0.2-0.48-0.42-0.96-0.67-1.42    c-0.24-0.46-0.51-0.91-0.8-1.34c-0.29-0.44-0.61-0.87-0.93-1.27c-0.34-0.4-0.69-0.8-1.06-1.17s-0.76-0.72-1.17-1.05    c-0.4-0.33-0.83-0.65-1.26-0.94c-0.44-0.28-0.89-0.55-1.35-0.8c-0.46-0.24-0.93-0.47-1.42-0.67c-0.48-0.2-0.97-0.38-1.47-0.53    s-1.01-0.28-1.52-0.38c-0.51-0.1-1.03-0.18-1.55-0.23c-1.04-0.11-2.1-0.11-3.15,0c-0.52,0.05-1.04,0.13-1.55,0.23    c-0.51,0.1-1.02,0.23-1.52,0.38s-0.99,0.33-1.48,0.53c-0.48,0.2-0.95,0.43-1.41,0.67c-0.46,0.25-0.91,0.52-1.35,0.8    c-0.43,0.29-0.86,0.61-1.26,0.94c-0.41,0.33-0.8,0.68-1.17,1.05s-0.72,0.77-1.06,1.17c-0.33,0.4-0.64,0.83-0.93,1.27    c-0.29,0.43-0.56,0.88-0.8,1.34s-0.47,0.94-0.67,1.42c-0.2,0.48-0.38,0.97-0.53,1.47c-0.15,0.5-0.28,1.01-0.38,1.52    c-0.11,0.51-0.18,1.03-0.24,1.55c-0.05,0.52-0.08,1.05-0.08,1.58c0,0.52,0.03,1.05,0.08,1.57c0.06,0.52,0.13,1.04,0.24,1.55    c0.1,0.51,0.23,1.02,0.38,1.52c0.15,0.5,0.33,1,0.53,1.48c0.2,0.48,0.42,0.95,0.67,1.41c0.24,0.46,0.51,0.92,0.8,1.35    c0.29,0.43,0.6,0.86,0.93,1.26c0.34,0.41,0.69,0.8,1.06,1.17s0.76,0.73,1.17,1.06c0.4,0.33,0.83,0.64,1.26,0.93    c0.44,0.29,0.89,0.56,1.35,0.8c0.46,0.25,0.93,0.47,1.41,0.67c0.49,0.2,0.98,0.38,1.48,0.53c0.5,0.15,1.01,0.28,1.52,0.38    c0.51,0.11,1.03,0.18,1.55,0.24c0.52,0.05,1.05,0.08,1.58,0.08c0.52,0,1.05-0.03,1.57-0.08c0.52-0.06,1.04-0.13,1.55-0.24    c0.51-0.1,1.02-0.23,1.52-0.38c0.5-0.15,0.99-0.33,1.47-0.53c0.49-0.2,0.96-0.42,1.42-0.67c0.46-0.24,0.91-0.51,1.35-0.8    c0.43-0.29,0.86-0.6,1.26-0.93c0.41-0.33,0.8-0.69,1.17-1.06s0.72-0.76,1.06-1.17c0.32-0.4,0.64-0.83,0.93-1.26    c0.29-0.43,0.56-0.89,0.8-1.35c0.25-0.46,0.47-0.93,0.67-1.41c0.2-0.48,0.38-0.98,0.53-1.48s0.28-1.01,0.38-1.52    c0.11-0.51,0.18-1.03,0.24-1.55c0.05-0.52,0.08-1.05,0.08-1.57c0-0.53-0.03-1.06-0.08-1.58    C367.61,173.34,367.54,172.82,367.43,172.31z"/><path class="st0" d="M367.43,251.29c-0.1-0.51-0.23-1.02-0.38-1.52s-0.33-0.99-0.53-1.47c-0.2-0.49-0.42-0.96-0.67-1.42    c-0.24-0.46-0.51-0.91-0.8-1.35c-0.29-0.43-0.61-0.86-0.93-1.26c-0.34-0.41-0.69-0.8-1.06-1.17s-0.76-0.72-1.17-1.06    c-0.4-0.32-0.83-0.64-1.26-0.93c-0.44-0.29-0.89-0.56-1.35-0.8c-0.46-0.25-0.93-0.47-1.42-0.67c-0.48-0.2-0.97-0.38-1.47-0.53    c-0.5-0.15-1.01-0.28-1.52-0.38c-0.51-0.11-1.03-0.18-1.55-0.24c-1.04-0.1-2.1-0.1-3.15,0c-0.52,0.06-1.04,0.13-1.55,0.24    c-0.51,0.1-1.02,0.23-1.52,0.38c-0.5,0.15-0.99,0.33-1.48,0.53c-0.48,0.2-0.95,0.42-1.41,0.67c-0.46,0.24-0.91,0.51-1.35,0.8    c-0.43,0.29-0.86,0.61-1.26,0.93c-0.41,0.34-0.8,0.69-1.17,1.06s-0.72,0.76-1.06,1.17c-0.33,0.4-0.64,0.83-0.93,1.26    c-0.29,0.44-0.56,0.89-0.8,1.35s-0.47,0.93-0.67,1.42c-0.2,0.48-0.38,0.97-0.53,1.47c-0.15,0.5-0.28,1.01-0.38,1.52    c-0.11,0.51-0.18,1.03-0.24,1.55c-0.05,0.52-0.08,1.05-0.08,1.57c0,0.53,0.03,1.06,0.08,1.58c0.06,0.52,0.13,1.04,0.24,1.55    c0.1,0.51,0.23,1.02,0.38,1.52c0.15,0.5,0.33,0.99,0.53,1.47c0.2,0.49,0.43,0.96,0.67,1.42s0.51,0.91,0.8,1.35    c0.29,0.43,0.6,0.86,0.93,1.26c0.34,0.41,0.69,0.8,1.06,1.17s0.76,0.72,1.17,1.06c0.4,0.32,0.83,0.64,1.26,0.93    c0.44,0.28,0.89,0.55,1.35,0.8c0.46,0.24,0.93,0.47,1.41,0.67c0.49,0.2,0.98,0.37,1.48,0.53c0.5,0.15,1.01,0.28,1.52,0.38    c0.51,0.1,1.03,0.18,1.55,0.23c0.52,0.06,1.05,0.08,1.58,0.08c0.52,0,1.05-0.02,1.57-0.08c0.52-0.05,1.04-0.13,1.55-0.23    c0.51-0.1,1.02-0.23,1.52-0.38c0.5-0.16,0.99-0.33,1.47-0.53c0.49-0.2,0.96-0.43,1.42-0.67c0.46-0.25,0.91-0.52,1.35-0.8    c0.43-0.29,0.86-0.61,1.26-0.93c0.41-0.34,0.8-0.69,1.17-1.06s0.72-0.76,1.06-1.17c0.32-0.4,0.64-0.83,0.93-1.26    c0.29-0.44,0.56-0.89,0.8-1.35c0.25-0.46,0.47-0.93,0.67-1.42c0.2-0.48,0.38-0.97,0.53-1.47s0.28-1.01,0.38-1.52    c0.11-0.51,0.18-1.03,0.24-1.55c0.05-0.52,0.08-1.05,0.08-1.58c0-0.52-0.03-1.05-0.08-1.57    C367.61,252.32,367.54,251.8,367.43,251.29z"/><path class="st0" d="M406.92,211.8c-0.1-0.51-0.23-1.02-0.38-1.52c-0.16-0.5-0.33-0.99-0.53-1.47c-0.2-0.48-0.43-0.96-0.67-1.42    c-0.25-0.46-0.52-0.91-0.8-1.35c-0.29-0.43-0.61-0.86-0.94-1.26c-0.33-0.41-0.68-0.8-1.05-1.17c-0.37-0.37-0.76-0.72-1.17-1.06    c-0.4-0.32-0.83-0.64-1.26-0.93c-0.44-0.29-0.89-0.56-1.35-0.8c-0.46-0.24-0.93-0.47-1.41-0.67c-0.49-0.2-0.98-0.38-1.48-0.53    c-0.5-0.15-1.01-0.28-1.52-0.38c-0.51-0.1-1.03-0.18-1.55-0.23c-1.05-0.11-2.1-0.11-3.15,0c-0.52,0.05-1.04,0.13-1.55,0.23    c-0.51,0.1-1.02,0.23-1.52,0.38c-0.5,0.15-1,0.33-1.48,0.53c-0.48,0.2-0.95,0.43-1.41,0.67c-0.46,0.24-0.92,0.51-1.35,0.8    s-0.86,0.61-1.26,0.93c-0.41,0.34-0.8,0.69-1.17,1.06c-0.37,0.37-0.72,0.76-1.06,1.17c-0.33,0.4-0.64,0.83-0.93,1.26    c-0.29,0.44-0.56,0.89-0.8,1.35c-0.25,0.46-0.47,0.94-0.67,1.42c-0.2,0.48-0.38,0.97-0.53,1.47s-0.28,1.01-0.38,1.52    c-0.11,0.51-0.19,1.03-0.24,1.55c-0.05,0.52-0.08,1.05-0.08,1.58c0,0.52,0.03,1.05,0.08,1.57c0.05,0.52,0.13,1.04,0.24,1.55    c0.1,0.51,0.23,1.02,0.38,1.52s0.33,0.99,0.53,1.48c0.2,0.48,0.42,0.95,0.67,1.41c0.24,0.46,0.51,0.91,0.8,1.35    c0.29,0.43,0.6,0.86,0.93,1.26c0.34,0.41,0.69,0.8,1.06,1.17c0.37,0.37,0.76,0.72,1.17,1.06c0.4,0.33,0.83,0.64,1.26,0.93    c0.44,0.29,0.89,0.56,1.35,0.8c0.46,0.25,0.93,0.47,1.41,0.67c0.49,0.2,0.98,0.38,1.48,0.53c0.5,0.15,1.01,0.28,1.52,0.38    c0.51,0.11,1.03,0.18,1.55,0.24c0.52,0.05,1.05,0.08,1.57,0.08c0.53,0,1.06-0.03,1.58-0.08c0.52-0.06,1.04-0.13,1.55-0.24    c0.51-0.1,1.02-0.23,1.52-0.38c0.5-0.15,0.99-0.33,1.47-0.53c0.48-0.2,0.96-0.42,1.42-0.67c0.46-0.24,0.91-0.51,1.34-0.8    c0.44-0.29,0.87-0.6,1.27-0.93c0.4-0.34,0.8-0.69,1.17-1.06c0.37-0.37,0.72-0.76,1.05-1.17c0.33-0.4,0.65-0.83,0.94-1.26    c0.28-0.44,0.55-0.89,0.8-1.35c0.24-0.46,0.47-0.93,0.67-1.41c0.2-0.49,0.37-0.98,0.53-1.48c0.15-0.5,0.28-1.01,0.38-1.52    c0.1-0.51,0.18-1.03,0.23-1.55c0.06-0.52,0.08-1.05,0.08-1.57c0-0.53-0.02-1.06-0.08-1.58    C407.1,212.83,407.02,212.31,406.92,211.8z"/><path class="st0" d="M327.94,211.8c-0.1-0.51-0.23-1.02-0.38-1.52c-0.15-0.5-0.33-0.99-0.53-1.47c-0.2-0.49-0.43-0.96-0.67-1.42    c-0.25-0.46-0.52-0.91-0.8-1.35c-0.29-0.43-0.61-0.86-0.94-1.26c-0.33-0.41-0.68-0.8-1.05-1.17c-0.37-0.37-0.76-0.72-1.17-1.06    c-0.4-0.32-0.83-0.64-1.26-0.93c-0.44-0.29-0.89-0.56-1.35-0.8c-0.46-0.24-0.93-0.47-1.42-0.67c-0.48-0.2-0.97-0.38-1.47-0.53    c-0.5-0.15-1.01-0.28-1.52-0.38c-0.51-0.1-1.03-0.18-1.55-0.23c-1.05-0.11-2.1-0.11-3.15,0c-0.52,0.05-1.04,0.13-1.55,0.23    c-0.51,0.1-1.02,0.23-1.52,0.38c-0.5,0.15-0.99,0.33-1.48,0.53c-0.48,0.2-0.95,0.43-1.41,0.67c-0.46,0.24-0.91,0.51-1.35,0.8    c-0.43,0.29-0.86,0.61-1.26,0.93c-0.41,0.34-0.8,0.69-1.17,1.06c-0.37,0.37-0.72,0.76-1.06,1.17c-0.32,0.4-0.64,0.83-0.93,1.26    c-0.29,0.44-0.56,0.89-0.8,1.35c-0.25,0.46-0.47,0.93-0.67,1.42c-0.2,0.48-0.38,0.97-0.53,1.47c-0.15,0.5-0.28,1.01-0.38,1.52    c-0.1,0.51-0.18,1.03-0.23,1.55c-0.06,0.52-0.08,1.05-0.08,1.58c0,0.52,0.02,1.05,0.08,1.57c0.05,0.52,0.13,1.04,0.23,1.55    c0.1,0.51,0.23,1.02,0.38,1.52c0.15,0.5,0.33,0.99,0.53,1.48c0.2,0.48,0.42,0.95,0.67,1.41c0.24,0.46,0.51,0.91,0.8,1.35    c0.29,0.43,0.61,0.86,0.93,1.26c0.34,0.41,0.69,0.8,1.06,1.17c0.37,0.37,0.76,0.72,1.17,1.06c0.4,0.33,0.83,0.64,1.26,0.93    c0.44,0.29,0.89,0.56,1.35,0.8c0.46,0.25,0.93,0.47,1.42,0.67c0.48,0.2,0.97,0.38,1.47,0.53c0.5,0.15,1.01,0.28,1.52,0.38    c0.51,0.11,1.03,0.18,1.55,0.24c0.52,0.05,1.05,0.08,1.58,0.08c0.52,0,1.05-0.03,1.57-0.08c0.52-0.06,1.04-0.13,1.55-0.24    c0.51-0.1,1.02-0.23,1.52-0.38c0.5-0.15,0.99-0.33,1.47-0.53c0.49-0.2,0.96-0.42,1.42-0.67c0.46-0.24,0.91-0.51,1.35-0.8    c0.43-0.29,0.86-0.6,1.26-0.93c0.41-0.34,0.8-0.69,1.17-1.06c0.37-0.37,0.72-0.76,1.05-1.17c0.33-0.4,0.65-0.83,0.94-1.26    c0.28-0.44,0.55-0.89,0.8-1.35c0.24-0.46,0.47-0.93,0.67-1.41c0.2-0.49,0.38-0.98,0.53-1.48c0.15-0.5,0.28-1.01,0.38-1.52    c0.11-0.51,0.18-1.03,0.24-1.55c0.05-0.52,0.08-1.05,0.08-1.57c0-0.53-0.03-1.06-0.08-1.58    C328.12,212.83,328.05,212.31,327.94,211.8z"/></g></g></svg>